# xmcd
#
# Track frame offsets:
#	150
#	20795
#	39861
#	58255
#	79637
#	95555
#	114298
#	131848
#	149536
#	170141
#	189179
#	207492
#	228874
#	244802
#	263623
#	281173
#	310256
#
# Disc length: 4149 seconds
#
# Revision: 1
# Processed by: cddbd v1.5.1PL2 Copyright (c) Steve Scherf et al.
# Submitted via: audiograbber 1.83.01
#
DISCID=f5103311
DTITLE=Various Artist - Sc3382
DYEAR=1900
DGENRE=Country
TTITLE0=Jackson, Alan - Remember When
TTITLE1=Tyler, Ryan - Run, Run, Run
TTITLE2=Lynne, Shelby - Telephone
TTITLE3=Evans, Sara - Perfect
TTITLE4=Williams, Hank Jr - I'm One Of You
TTITLE5=Keith, Toby - I Love This Bar
TTITLE6=Paisley, Brad - Little Moments
TTITLE7=Brooks and Dunn - You Can't Take The Honky Tonk Out Of The Girl
TTITLE8=Jackson, Alan - Remember When (Vocals)
TTITLE9=Tyler, Ryan - Run, Run, Run (Vocals)
TTITLE10=Lynne, Shelby - Telephone (Vocals)
TTITLE11=Evans, Sara - Perfect (Vocals)
TTITLE12=Williams, Hank Jr - I'm One Of You (Vocals)
TTITLE13=Keith, Toby - I Love This Bar (Vocals)
TTITLE14=Paisley, Brad - Little Moments (Vocals)
TTITLE15=Brooks and Dunn - You Can't Take The Honky Tonk Out Of The Girl (Vocals)
TTITLE16=artist - Data Track
EXTD=
EXTT0=
EXTT1=
EXTT2=
EXTT3=
EXTT4=
EXTT5=
EXTT6=
EXTT7=
EXTT8=
EXTT9=
EXTT10=
EXTT11=
EXTT12=
EXTT13=
EXTT14=
EXTT15=
EXTT16=
PLAYORDER=
